<svg id="Warstwa_1" xmlns="http://www.w3.org/2000/svg" viewBox="0 0 557.1 243.4"><style>.st0{fill:#FFFEFE;}</style><path class="st0" d="M342 86.3h-20.2V40H341c9.6 0 14.8 5.4 14.8 13.4 0 5.3-3.6 8.2-5.1 9.2 1.9 1.2 5.7 3.6 5.7 10.1 0 8.7-6.2 13.6-14.4 13.6zm-1.7-36.1h-7.1v7.5h7.1c3.1 0 4.1-2 4.1-3.8 0-1.8-1-3.7-4.1-3.7zm.6 17.7h-7.7V76h7.7c3.1 0 4.2-2.1 4.2-4.1-.1-1.9-1.1-4-4.2-4zm37.2 18.7c-9.6 0-17.5-6.5-17.5-16.6V40H372v29.8c0 4.3 2.3 6.8 6.1 6.8s6.2-2.5 6.2-6.8V40h11.4v30c.1 10.1-7.9 16.6-17.6 16.6zm24.7-.3V40h11.4v36.1h19.4v10.1h-30.8zm36.5 0V40h11.4v36.1h19.4v10.1h-30.8zM342 144.7h-20.2V98.4H341c9.6 0 14.8 5.4 14.8 13.4 0 5.3-3.6 8.2-5.1 9.2 1.9 1.2 5.7 3.6 5.7 10.1 0 8.7-6.2 13.6-14.4 13.6zm-1.7-36.1h-7.1v7.5h7.1c3.1 0 4.1-2 4.1-3.8 0-1.8-1-3.7-4.1-3.7zm.6 17.7h-7.7v8.1h7.7c3.1 0 4.2-2.1 4.2-4.1s-1.1-4-4.2-4zm37.2 18.7c-9.6 0-17.5-6.5-17.5-16.6v-30H372v29.8c0 4.3 2.3 6.8 6.1 6.8s6.2-2.5 6.2-6.8V98.4h11.4v30c.1 10.1-7.9 16.6-17.6 16.6zm48.1-.3l-8.2-17.2h-3.8v17.2h-11.4V98.4h18.3c10.3 0 15.8 7.3 15.8 14.9 0 6.3-3.9 10.3-7.5 12.1l10 19.3h-13.2zm-5.5-36.1h-6.4v9.4h6.4c3.1 0 4.9-2.3 4.9-4.7 0-2.4-1.8-4.7-4.9-4.7zm52.3 31.2c-4 4.1-8.4 5.2-13.5 5.2-5.4 0-9.5-1.8-12.9-5.2-4.9-4.9-4.7-11.4-4.7-18.3s-.2-13.5 4.7-18.3c3.4-3.4 7.3-5.2 12.9-5.2 11.9 0 17 7.7 18.1 15.3h-11.4c-.9-3.5-2.7-5.2-6.6-5.2-2.1 0-3.6.9-4.5 2-1 1.4-1.7 2.9-1.7 11.4s.7 10.1 1.7 11.4c.8 1.1 2.4 1.9 4.5 1.9 2.4 0 4-.7 5.1-1.8 1.3-1.3 1.8-3.2 1.8-4.9v-.7h-6.8V118h18.1v6.4c-.1 7.5-1.3 11.9-4.8 15.4zm10.3 4.9V98.4h31.5v10.1h-20.1v7.7h17.2v10.1h-17.2v8.1h20.1v10.1h-31.5zm60.6 0l-8.2-17.2h-3.8v17.2h-11.4V98.4h18.3c10.3 0 15.8 7.3 15.8 14.9 0 6.3-3.9 10.3-7.5 12.1l10 19.3h-13.2zm-5.6-36.1h-6.4v9.4h6.4c3.1 0 4.9-2.3 4.9-4.7 0-2.4-1.8-4.7-4.9-4.7zm-187 89.6c-4 4.1-8.4 5.2-13.5 5.2-5.4 0-9.5-1.8-12.9-5.2-4.9-4.9-4.7-11.4-4.7-18.3 0-7-.2-13.5 4.7-18.3 3.4-3.4 7.3-5.2 12.9-5.2 11.9 0 17 7.7 18.1 15.3h-11.4c-.9-3.5-2.7-5.2-6.6-5.2-2.1 0-3.6.9-4.5 2-1 1.4-1.7 2.9-1.7 11.4s.7 10.1 1.7 11.4c.8 1.1 2.4 1.9 4.5 1.9 2.4 0 4-.7 5.1-1.8 1.3-1.3 1.8-3.2 1.8-4.9v-.7H338v-9.5h18v6.4c0 7.6-1.2 12-4.7 15.5zm33.8 4.9l-8.2-17.2h-3.8v17.2h-11.4v-46.3H380c10.3 0 15.8 7.3 15.8 14.9 0 6.3-3.9 10.3-7.5 12.1l10 19.3h-13.2zm-5.6-36.1h-6.4v9.4h6.4c3.1 0 4.9-2.3 4.9-4.7s-1.8-4.7-4.9-4.7zm23.4 36.1v-46.3h11.4v46.3h-11.4zm18.6 0v-46.3h11.4v36.1h19.4V203h-30.8zm36.5.2V157h11.4v36.1h19.4v10.1H458zM266.5 28.6h-11.3v186.1h11.3V28.6zm-68.1 9.9V0H0v110.8l198.4-72.3zM22.7 78.4V22.7h153l-153 55.7zM0 134.9V159l198.4-72.2V62.7L0 134.9zm6.9 45.8c2.8 7.2 6.5 13.9 10.8 20.2 18.3 26.2 48.9 43.2 83.5 42.5 53.5-1.1 97.2-46.9 97.2-100.4v-32L6.9 180.7zm168.9-36.5c0 42.2-34.3 76.5-76.5 76.5-23.8 0-45.1-10.9-59.1-28l135.7-49.4v.9zM34.9 48.7C32 49.8 30.4 53 31.5 56s4.3 4.5 7.3 3.4c2.9-1.1 4.5-4.3 3.4-7.3-1.1-2.9-4.4-4.4-7.3-3.4zm5.8-17.2c-2.9 1.1-4.5 4.3-3.4 7.3 1.1 2.9 4.3 4.5 7.3 3.4 2.9-1.1 4.5-4.3 3.4-7.3-1.1-2.9-4.3-4.4-7.3-3.4zm34.2 2.7c-2.9 1.1-4.5 4.3-3.4 7.3s4.3 4.5 7.3 3.4c2.9-1.1 4.5-4.3 3.4-7.3s-4.4-4.5-7.3-3.4zm-19.5 8.6c-2.2.8-3.3 3.2-2.5 5.4.8 2.2 3.2 3.3 5.4 2.5 2.2-.8 3.3-3.2 2.5-5.4-.8-2.2-3.2-3.3-5.4-2.5z"/></svg>