<svg version="1.1" id="bbg-mini-logo" xmlns="http://www.w3.org/2000/svg" xmlns:xlink="http://www.w3.org/1999/xlink" x="0px" y="0px" viewBox="0 0 27.4 33.6" style="enable-background:new 0 0 27.4 33.6" xml:space="preserve"> <g id="logo"> <g id="sygnet"> <style>.st0{fill:#FFFEFE!important;}</style><path fill="white" d="M27.4,5.3V0H0v15.3L27.4,5.3z M3.1,10.8V3.1h21.1L3.1,10.8z"></path> <polygon fill="#a41833" points="27.4,8.6 27.4,12 0,21.9 0,18.6    "></polygon> <style>.st0{fill:#FFFEFE!important;}</style><path fill="white" d="M1,24.9c0.4,1,0.9,1.9,1.5,2.8c2.5,3.6,6.7,6,11.5,5.9c7.4-0.1,13.4-6.5,13.4-13.8v-4.4L1,24.9z M24.2,19.9
                        c0,5.8-4.7,10.6-10.6,10.6c-3.3,0-6.2-1.5-8.2-3.9l18.7-6.8L24.2,19.9L24.2,19.9z"></path> <circle cx="5.1" cy="7.5" r="0.8"></circle> <circle cx="5.9" cy="5.1" r="0.8"></circle> <circle cx="10.6" cy="5.4" r="0.8"></circle> <circle cx="7.8" cy="6.4" r="0.6"></circle> </g> </g> </svg>