<?xml version="1.0" encoding="UTF-8"?>
<!DOCTYPE svg  PUBLIC '-//W3C//DTD SVG 1.1//EN'  'http://www.w3.org/Graphics/SVG/1.1/DTD/svg11.dtd' [
	<!ENTITY st0 "fill-rule:evenodd;clip-rule:evenodd;">
]>
<svg enable-background="new 0 0 1000 141.2" version="1.1" viewBox="0 0 1000 141.2" xml:space="preserve" xmlns="http://www.w3.org/2000/svg">
		<path d="m250.6 11.3c-0.1-2.5-1.1-4.8-2.8-6.5s-4.1-2.8-6.7-2.8h-229.6c-2.6 0-5 1.1-6.7 2.8s-2.8 4.1-2.8 6.7v118.3c0 2.6 1.1 5 2.8 6.7s4.1 2.8 6.7 2.8h229.7c2.6 0 5-1.1 6.7-2.8s2.8-4.1 2.8-6.7v-118.5h-0.1zm-1.3-7.9c2.1 2.1 3.4 4.9 3.4 8.1v118.2c0 3.2-1.3 6-3.4 8.1s-4.9 3.4-8.1 3.4h-229.7c-3.2 0-6-1.3-8.1-3.4s-3.4-4.9-3.4-8.1v-118.2c0-3.2 1.3-6 3.4-8.1 2-2.1 4.9-3.4 8.1-3.4h229.7c3.1 0 6 1.3 8.1 3.4z"/>
		<path d="m95 89.9c-3-3.8-5.3-8.1-6.8-12.7h-0.6c-3.9 5.5-10.2 8.7-17 8.7-6 0-11.7-2.6-15.7-7.1v17.3c4.9 2.4 10.2 3.7 15.7 3.7 9.1 0 17.9-3.5 24.4-9.9zm31.3-31.8h-55.7v14h55.7v-14zm40 20.7v17.3c4.9 2.4 10.2 3.7 15.7 3.7 19.2 0 34.8-15.6 34.8-34.8s-15.6-34.8-34.8-34.8-34.8 15.6-34.8 34.8v57.2h13.9v-57.2c0-11.5 9.4-20.9 20.9-20.9s20.9 9.3 20.9 20.9c0 11.5-9.4 20.9-20.9 20.9-6 0-11.7-2.6-15.7-7.1zm-15.7-38.6c-6.5-6.4-15.2-9.9-24.3-9.9-14.5 0-27.5 9-32.6 22.6h15.6c3.9-5.5 10.2-8.7 17-8.7 7 0 13.5 3.5 17.4 9.3 1.4-4.9 3.8-9.4 6.9-13.3zm-114.8 24.8v57.7h13.9v-57.7c0-11.5 9.4-20.9 20.9-20.9 6.7 0 13 3.2 17 8.7h0.6c1.5-4.5 3.8-8.8 6.8-12.6-6.5-6.4-15.2-9.9-24.3-9.9-19.3 0-34.9 15.5-34.9 34.7z" clip-rule="evenodd" fill-rule="evenodd"/>
		<path d="m141.1 80.8c-1.8 1.6-3.8 3-5.9 4-2.8 1.3-5.8 1.9-8.9 1.9-3.5 0-6.9-0.8-9.9-2.4-2.9-1.5-5.5-3.6-7.5-6.3h-14c2.5 6.1 6.8 11.3 12 14.9 5.6 3.9 12.3 6.1 19.4 6.1 2.7 0 5.3-0.3 7.9-0.9 2.4-0.6 4.8-1.4 7-2.5v-14.8h-0.1zm-6.6 2.5c2.6-1.2 4.9-2.9 6.8-5l1.4-1.6v20l-0.4 0.2c-2.5 1.3-5.1 2.2-7.8 2.8s-5.5 1-8.2 1c-7.4 0-14.5-2.3-20.3-6.4-5.8-4-10.5-9.8-13.1-16.8l-0.4-1.1h1.2 15.6 0.4l0.2 0.3c1.9 2.6 4.3 4.7 7.1 6.1s5.9 2.2 9.2 2.2c2.9 0 5.7-0.6 8.3-1.7z"/>
		<path d="m998 11.5c0-2.6-1.1-5-2.8-6.7s-4.1-2.8-6.7-2.8h-715.2c-2.6 0-5 1.1-6.7 2.8s-2.8 4.1-2.8 6.7v118.3c0 2.6 1.1 5 2.8 6.7s4.1 2.8 6.7 2.8h715.3c2.6 0 5-1.1 6.7-2.8s2.8-4.1 2.8-6.7v-118.3h-0.1zm-1.4-8.1c2.1 2.1 3.4 4.9 3.4 8.1v118.3c0 3.2-1.3 6-3.4 8.1s-4.9 3.4-8.1 3.4h-715.2c-3.2 0-6-1.3-8.1-3.4s-3.4-4.9-3.4-8.1v-118.3c0-3.2 1.3-6 3.4-8.1s4.9-3.4 8.1-3.4h715.3c3.1 0 6 1.3 8 3.4z"/>
		<g clip-rule="evenodd" fill-rule="evenodd">
			<path d="m308 41.1c4.3-0.7 10.4-1.3 18.9-1.3 8.6 0 14.8 1.7 18.9 5 4 3.1 6.6 8.3 6.6 14.3s-1.9 11.3-5.7 14.7c-4.8 4.4-11.8 6.5-20.1 6.5-1.8 0-3.5-0.1-4.8-0.4v22.2h-13.8v-61zm13.8 28.1c1.2 0.3 2.6 0.4 4.7 0.4 7.4 0 12-3.8 12-10 0-5.7-3.9-9.1-11-9.1-2.8 0-4.7 0.2-5.7 0.5v18.2z"/>
			<path d="m398.3 79.2c0 16.4-11.6 23.9-23.7 23.9-13.1 0-23.2-8.6-23.2-23.1 0-14.6 9.5-23.8 24-23.8 13.7 0 22.9 9.4 22.9 23zm-32.5 0.5c0 7.7 3.2 13.5 9.2 13.5 5.5 0 8.9-5.4 8.9-13.6 0-6.6-2.6-13.4-8.9-13.4-6.6 0-9.2 6.8-9.2 13.5z"/>
			<polygon points="402.3 37 416.3 37 416.3 102.1 402.3 102.1"/>
			<path d="m422.9 90c2.6 1.6 7.9 3.3 12 3.3 4.2 0 6-1.4 6-3.7 0-2.4-1.4-3.5-6.5-5.2-9.4-3.1-12.9-8.2-12.8-13.5 0-8.4 7.2-14.8 18.2-14.8 5.2 0 9.8 1.3 12.6 2.7l-2.4 9.6c-2-1.1-6-2.6-9.7-2.6-3.4 0-5.3 1.4-5.3 3.6s1.7 3.3 7.2 5.2c8.5 2.9 12 7.3 12.1 13.8 0 8.4-6.5 14.6-19.3 14.6-5.9 0-11.1-1.4-14.5-3.2l2.4-9.8z"/>
			<path d="m472.1 76.2h0.2c1-1.9 2.1-3.8 3.2-5.4l9.1-13.5h16.8l-16 18.2 18.3 26.7h-17.2l-10.9-18.4-3.5 4.4v14h-13.9v-65.2h13.9v39.2z"/>
			<path d="m518.6 44.8c0 3.9-2.8 7-7.5 7-4.4 0-7.2-3.1-7.2-7s2.9-7 7.4-7 7.2 3.1 7.3 7zm-14.4 57.3v-44.8h13.9v44.8h-13.9z"/>
			<path d="m535.5 84.1c0.4 5.8 6.1 8.5 12.7 8.5 4.8 0 8.6-0.6 12.4-1.9l1.8 9.4c-4.6 1.9-10.2 2.8-16.2 2.8-15.2 0-23.9-8.8-23.9-22.8 0-11.4 7.1-23.9 22.7-23.9 14.5 0 20 11.3 20 22.4 0 2.4-0.3 4.5-0.5 5.5h-29zm16.4-9.5c0-3.4-1.5-9.1-7.9-9.1-5.9 0-8.3 5.4-8.6 9.1h16.5z"/>
			<path d="m593.2 84.1c0.4 5.8 6.1 8.5 12.7 8.5 4.8 0 8.6-0.6 12.4-1.9l1.8 9.4c-4.6 1.9-10.2 2.8-16.2 2.8-15.2 0-23.9-8.8-23.9-22.8 0-11.4 7.1-23.9 22.7-23.9 14.5 0 20 11.3 20 22.4 0 2.4-0.3 4.5-0.5 5.5h-29zm16.4-9.5c0-3.4-1.5-9.1-7.9-9.1-5.9 0-8.2 5.4-8.6 9.1h16.5z"/>
			<path d="m626.8 41.1c4.3-0.7 10.4-1.3 18.9-1.3 8.6 0 14.8 1.7 18.9 5 4 3.1 6.6 8.3 6.6 14.3s-1.9 11.3-5.7 14.7c-4.8 4.4-11.8 6.5-20.1 6.5-1.8 0-3.5-0.1-4.8-0.4v22.2h-13.9v-61h0.1zm13.8 28.1c1.2 0.3 2.6 0.4 4.7 0.4 7.4 0 12-3.8 12-10 0-5.7-3.9-9.1-11-9.1-2.8 0-4.7 0.2-5.7 0.5v18.2z"/>
			<polygon points="675.6 102.1 675.6 81.1 669.6 85.8 669.6 75.8 675.6 71.1 675.6 37 689.5 37 689.5 60.8 696 55.5 696 65.5 689.5 70.8 689.5 102.1 675.6 102.1"/>
			<path d="m734.1 91.3c0 4.2 0.2 8.3 0.7 10.8h-12.6l-0.8-4.5h-0.3c-2.9 3.6-7.5 5.5-12.8 5.5-9.1 0-14.5-6.6-14.5-13.8 0-11.6 10.5-17.1 26.3-17.1v-0.5c0-2.5-1.3-5.9-8.2-5.9-4.6 0-9.4 1.6-12.4 3.4l-2.6-9c3.1-1.7 9.3-4 17.4-4 14.9 0 19.6 8.8 19.6 19.4v15.7h0.2zm-13.5-10.4c-7.3 0-13 1.7-13 7.1 0 3.6 2.4 5.3 5.5 5.3 3.4 0 6.3-2.3 7.2-5.1 0.2-0.7 0.3-1.6 0.3-2.4v-4.9z"/>
			<path d="m755.4 45.2v12.1h10v10.3h-10v16.2c0 5.4 1.4 7.9 5.5 7.9 1.9 0 2.8-0.1 4.1-0.4l0.1 10.5c-1.7 0.6-5.1 1.2-9 1.2-4.5 0-8.2-1.6-10.5-3.9-2.6-2.7-3.8-7-3.8-13.3v-18.3h-6v-10.2h6v-8.3l13.6-3.8z"/>
			<path d="m768.9 71.6c0-5.6-0.2-10.3-0.4-14.3h12.1l0.6 6.2h0.3c1.8-2.9 6.3-7.2 13.8-7.2 9.2 0 16 6.1 16 19.3v26.5h-13.9v-24.8c0-5.8-2-9.7-7.1-9.7-3.9 0-6.2 2.7-7.2 5.2-0.4 0.9-0.5 2.2-0.5 3.5v25.9h-13.9v-30.6h0.2z"/>
			<path d="m862.3 79.2c0 16.4-11.7 23.9-23.7 23.9-13.1 0-23.2-8.6-23.2-23.1 0-14.6 9.5-23.8 24-23.8 13.8 0 22.9 9.4 22.9 23zm-32.4 0.5c0 7.7 3.2 13.5 9.2 13.5 5.5 0 8.9-5.4 8.9-13.6 0-6.6-2.6-13.4-8.9-13.4-6.7 0-9.2 6.8-9.2 13.5z"/>
			<path d="m866.3 90c2.6 1.6 7.9 3.3 12 3.3 4.2 0 6-1.4 6-3.7 0-2.4-1.4-3.5-6.5-5.2-9.4-3.1-12.9-8.2-12.8-13.5 0-8.4 7.1-14.8 18.2-14.8 5.2 0 9.8 1.3 12.6 2.7l-2.4 9.6c-2-1.1-6-2.6-9.7-2.6-3.4 0-5.3 1.4-5.3 3.6s1.7 3.3 7.2 5.2c8.5 2.9 12 7.3 12.1 13.8 0 8.4-6.5 14.6-19.3 14.6-5.9 0-11.1-1.4-14.5-3.2l2.4-9.8zm29.6-52.3l-11.2 13.9h-9.5l7.9-13.9h12.8z"/>
			<path d="m935.2 100.9c-2.5 1.2-7.2 2.1-12.5 2.1-14.5 0-23.8-8.9-23.8-22.9 0-13.1 9-23.8 25.7-23.8 3.7 0 7.7 0.6 10.6 1.7l-2.2 10.4c-1.7-0.7-4.1-1.4-7.8-1.4-7.3 0-12.1 5.2-12 12.6 0 8.2 5.5 12.6 12.3 12.6 3.3 0 5.9-0.6 8-1.5l1.7 10.2z"/>
			<path d="m952.7 44.8c0 3.9-2.8 7-7.5 7-4.4 0-7.2-3.1-7.2-7s2.9-7 7.4-7 7.3 3.1 7.3 7zm-14.4 57.3v-44.8h13.9v44.8h-13.9z"/>
		</g>
</svg>
